<?xml version="1.0" encoding="UTF-8"?>
<svg version="1.1" xmlns="http://www.w3.org/2000/svg" width="787" height="630">
<path d="M0 0 C3.55170899 2.7445024 6.62355687 5.73761477 9.453125 9.22265625 C12.56368297 11.7989177 14.87965186 11.76305399 18.875 12.0625 C26.74023588 12.83583202 34.43495774 14.87579879 39.75 21.125 C40.83625409 24.616531 40.92806242 26.5670711 39.8125 30.0625 C36.77713133 34.56956257 32.65961176 38.67019412 27.75 41.125 C27.65974887 46.28937029 27.68343912 51.05883582 28.75 56.125 C29.23448777 62.03575085 28.60409069 65.24467355 25.4296875 70.265625 C24.49128388 72.19420305 24.49128388 72.19420305 25.6328125 74.359375 C26.00148438 74.94203125 26.37015625 75.5246875 26.75 76.125 C27.74 76.125 28.73 76.125 29.75 76.125 C31.6866167 74.13080002 33.43474081 72.14711592 35.1875 70 C36.27203134 68.70433996 37.35666964 67.40876944 38.44140625 66.11328125 C38.99328613 65.4476416 39.54516602 64.78200195 40.11376953 64.09619141 C54.77434629 46.43437452 70.22192987 28.60824445 87.8125 13.78515625 C91.12370457 10.9479346 94.27546975 7.93068924 97.453125 4.9453125 C99.66631286 3.19132348 100.96469818 2.40845992 103.75 2.125 C104.75 3.125 104.75 3.125 104.86911201 5.2531662 C104.86647284 6.19921974 104.86383366 7.14527328 104.8611145 8.11999512 C104.8607872 9.20220337 104.8604599 10.28441162 104.86012268 11.39941406 C104.85488083 12.59727539 104.84963898 13.79513672 104.84423828 15.02929688 C104.84145043 17.62886544 104.83878071 20.22843414 104.83621216 22.82800293 C104.83321597 24.22903969 104.8301334 25.63007628 104.82696915 27.03111267 C104.8185771 31.36033205 104.82399187 35.68946244 104.83297729 40.01867676 C104.8344483 40.74909793 104.83591931 41.47951911 104.83743489 42.23207426 C104.84050595 43.72623199 104.84362599 45.22038963 104.84679389 46.71454716 C104.86797396 56.79612592 104.88176409 66.87741727 104.84960938 76.95898438 C104.82803601 83.7543669 104.83129572 90.54924029 104.86301792 97.34458971 C104.87883257 100.93957409 104.88218992 104.53358563 104.85525894 108.12852478 C104.82541431 112.14822127 104.85031878 116.16584433 104.87939453 120.18554688 C104.85331367 121.9580481 104.85331367 121.9580481 104.82670593 123.76635742 C104.93494775 130.97371862 106.19804769 134.94685858 111.10058403 140.30750275 C113.20286502 142.62401356 114.17041677 144.91491622 115.125 147.875 C115.42148437 148.75671875 115.71796875 149.6384375 116.0234375 150.546875 C118.97238277 161.01087433 118.57582307 172.48663797 113.625 182.37109375 C113.25375 182.97050781 112.8825 183.56992187 112.5 184.1875 C110.57939827 186.84148887 110.57939827 186.84148887 110.75 189.125 C111.98521506 191.59543011 113.41668913 193.93761366 114.82421875 196.3125 C116.12962701 198.868236 116.54685122 201.28091715 116.75 204.125 C116.42 204.455 116.09 204.785 115.75 205.125 C113.89453125 205.0390625 113.89453125 205.0390625 111.5625 204.75 C110.75039063 204.65332031 109.93828125 204.55664062 109.1015625 204.45703125 C107.20204083 204.18882636 105.31583409 203.82734292 103.4375 203.4375 C100.32849676 203.075988 99.44049274 203.69567573 96.75 205.125 C93.5 205.25 93.5 205.25 90.75 205.125 C89.34051386 200.89654159 90.946964 197.98553273 92.75 194.125 C93.98774099 192.02526082 95.31665256 190.10203095 96.75 188.125 C96.316875 187.31095703 96.316875 187.31095703 95.875 186.48046875 C95.50375 185.76503906 95.1325 185.04960937 94.75 184.3125 C94.37875 183.60480469 94.0075 182.89710938 93.625 182.16796875 C92.75 180.125 92.75 180.125 92.75 177.125 C90.44 177.125 88.13 177.125 85.75 177.125 C84.49010257 174.60520514 84.7460503 173.16844672 85 170.375 C85.06703125 169.53453125 85.1340625 168.6940625 85.203125 167.828125 C85.86087871 164.57694238 87.26848943 162.08802114 88.75 159.125 C89.38058416 156.72022991 89.96177051 154.30211033 90.5 151.875 C92.26057611 144.55989209 95.38825609 138.48674391 100.75 133.125 C100.84568576 131.64483606 100.87188268 130.16011727 100.87025452 128.67686462 C100.87162918 127.7162764 100.87300385 126.75568817 100.87442017 125.76599121 C100.87082489 124.70360229 100.86722961 123.64121338 100.86352539 122.54663086 C100.86374443 120.87855125 100.86374443 120.87855125 100.8639679 119.17677307 C100.86326821 115.48111049 100.8554732 111.78549759 100.84765625 108.08984375 C100.84579227 105.53536507 100.84436827 102.98088603 100.84336853 100.42640686 C100.83993344 94.3773829 100.83204264 88.32838045 100.82201904 82.27936512 C100.81085683 75.39434846 100.80534718 68.50933096 100.80032361 61.62430751 C100.78986 47.4578617 100.77226123 33.29143183 100.75 19.125 C100.346604 19.67648712 99.94320801 20.22797424 99.52758789 20.7961731 C98.99383545 21.51844086 98.46008301 22.24070862 97.91015625 22.98486328 C97.38301025 23.7013504 96.85586426 24.41783752 96.31274414 25.15603638 C94.38433199 27.58571969 92.32271875 29.27660827 89.75 31 C88.945625 31.55429688 88.14125 32.10859375 87.3125 32.6796875 C84.75 34.125 84.75 34.125 81.55859375 34.9375 C78.49227342 35.85549981 78.49227342 35.85549981 77.53515625 38.8828125 C77.29667969 39.99398437 77.05820312 41.10515625 76.8125 42.25 C74.3516873 51.42488193 69.68040427 56.3867734 61.64453125 61.21484375 C59.69540279 62.15122918 57.86131997 62.6802652 55.75 63.125 C55.60304688 63.95902344 55.45609375 64.79304688 55.3046875 65.65234375 C53.63216948 74.04377035 51.62050194 81.39533635 44.58203125 86.78515625 C42.67347852 87.99784728 40.76743678 89.10604082 38.75 90.125 C39.20439453 90.92550781 39.20439453 90.92550781 39.66796875 91.7421875 C41.04638546 94.19364861 42.39942516 96.65809635 43.75 99.125 C44.21535156 99.95257813 44.68070313 100.78015625 45.16015625 101.6328125 C48.45795864 107.76691723 50.75478668 113.37881253 49.26953125 120.39453125 C48.28512813 123.4130049 47.35648474 125.65546343 44.8125 127.625 C42.75 128.125 42.75 128.125 38.75 128.125 C38.9665625 128.98544922 38.9665625 128.98544922 39.1875 129.86328125 C42.26061998 143.92707338 42.84226259 160.29888471 35.59375 173.1796875 C34.69153973 174.52655854 33.72825576 175.83230489 32.75 177.125 C32.75 177.785 32.75 178.445 32.75 179.125 C33.51441406 179.23980713 34.27882813 179.35461426 35.06640625 179.47290039 C49.79425182 181.74034172 63.57093639 183.89279604 76.75 191.125 C77.69359375 191.45886719 78.6371875 191.79273438 79.609375 192.13671875 C82.28294367 194.62001519 82.16934819 195.66034372 82.45703125 199.23046875 C82.51683747 201.25723511 82.55101571 203.28488397 82.5625 205.3125 C82.58763672 206.34826172 82.61277344 207.38402344 82.63867188 208.45117188 C82.69761943 211.00949579 82.73384257 213.56610605 82.75 216.125 C83.88695312 216.22296875 85.02390625 216.3209375 86.1953125 216.421875 C112.98759092 218.92509092 112.98759092 218.92509092 121.2578125 227.1953125 C124.26526576 231.08453217 125.75 234.8787468 125.75 239.875 C123.20179658 245.60845769 116.65944558 247.78044072 111.1875 249.953125 C91.71924759 256.59002923 69.82308075 255.79090566 51.03515625 247.30859375 C48.75 246.125 48.75 246.125 45.75 244.125 C45.75 243.465 45.75 242.805 45.75 242.125 C40.78339587 241.9696574 36.52486475 242.46464071 31.70703125 243.65625 C30.37181489 243.97555369 29.03652603 244.29455433 27.70117188 244.61328125 C25.63797747 245.11535694 23.57597874 245.62164679 21.51538086 246.13427734 C6.28273653 249.89899237 -6.88830356 249.00684182 -22.25 246.75 C-23.82802108 246.52531058 -25.40614589 246.30134847 -26.984375 246.078125 C-30.74245293 245.54402781 -34.49632571 244.98513812 -38.24957275 244.41821289 C-40.0605465 244.15276917 -41.87560089 243.9155427 -43.69091797 243.68164062 C-50.65701525 242.71403422 -56.19130252 240.69261834 -62.375 237.375 C-63.23520752 236.92906494 -64.09541504 236.48312988 -64.98168945 236.02368164 C-80.43390104 227.94109896 -80.43390104 227.94109896 -83.25 225.125 C-87.68539123 201.39931366 -87.68539123 201.39931366 -84.30615234 192.69335938 C-78.95956342 184.98910826 -68.77079558 182.46866822 -60.07421875 180.61328125 C-59.14222656 180.45214844 -58.21023438 180.29101562 -57.25 180.125 C-58.735 178.145 -58.735 178.145 -60.25 176.125 C-59.4375 174.1875 -59.4375 174.1875 -58.25 172.125 C-57.26 171.795 -56.27 171.465 -55.25 171.125 C-53.69359079 166.45577238 -53.96114094 161.89315894 -54.74560547 157.09130859 C-55.33205831 152.47973409 -55.4307601 147.97909265 -55.453125 143.3359375 C-55.45882507 142.39682526 -55.46452515 141.45771301 -55.47039795 140.49014282 C-55.47981629 138.50157788 -55.4863693 136.51299755 -55.49023438 134.52441406 C-55.49981387 131.55764335 -55.53081397 128.59160474 -55.5625 125.625 C-55.65161014 109.63052131 -54.40703194 94.03535654 -49.9375 78.625 C-47.95236828 71.31372242 -48.40143458 65.41933923 -50.25 58.125 C-50.91386719 58.08761719 -51.57773437 58.05023438 -52.26171875 58.01171875 C-61.45470853 57.32727717 -61.45470853 57.32727717 -65.25 54.125 C-67.25291321 51.57583773 -67.25 50.14990714 -67.25 46.875 C-65.26149941 39.41812279 -61.1445545 35.58985802 -54.6875 31.625 C-48.16538019 27.18290759 -47.22765209 22.14948838 -45.3359375 14.9140625 C-43.24387853 7.61443228 -39.62873785 3.76942408 -33.3125 -0.25 C-21.89892611 -6.51894805 -11.24101738 -6.48520233 0 0 Z M-38.91015625 11.12109375 C-40.61170603 13.66597724 -41.57926639 16.14396173 -42.25 19.125 C-38.16955878 17.80735752 -34.21698242 16.31173643 -30.25 14.6875 C-20.24169514 10.8188394 -9.93925538 8.839259 0.75 8.125 C-0.61614366 4.7902083 -1.79675561 3.40184153 -5.0625 1.875 C-18.00329413 -3.34708895 -30.35417473 0.51167666 -38.91015625 11.12109375 Z M91.984375 16.56835938 C91.24703125 17.30892578 90.5096875 18.04949219 89.75 18.8125 C89.01265625 19.53373047 88.2753125 20.25496094 87.515625 20.99804688 C86.80921875 21.70380859 86.1028125 22.40957031 85.375 23.13671875 C84.72789062 23.78084717 84.08078125 24.42497559 83.4140625 25.08862305 C81.58608922 27.32558389 80.68437942 29.40592051 79.75 32.125 C87.12149556 30.74284458 92.11744133 26.95937893 96.3671875 20.76953125 C99.04074631 16.23620835 99.04074631 16.23620835 99.75 11.125 C96.26622072 11.125 94.35621733 14.22032203 91.984375 16.56835938 Z M-60.25 41.125 C-62.09427658 44.2429801 -62.90370997 46.48290159 -62.25 50.125 C-58.46669117 53.44972595 -55.13424492 53.41230852 -50.25 53.125 C-50.09144531 52.31675781 -49.93289063 51.50851563 -49.76953125 50.67578125 C-47.4282364 39.95239212 -47.4282364 39.95239212 -42.25 36.125 C-41.62222656 35.64804688 -40.99445313 35.17109375 -40.34765625 34.6796875 C-26.24811999 24.53210083 -7.23593668 19.61345577 10.0390625 21.48046875 C13.72715238 22.12758742 17.19755251 22.94085084 20.75 24.125 C21.245 25.115 21.245 25.115 21.75 26.125 C21.09 26.125 20.43 26.125 19.75 26.125 C21.08488128 29.71891114 22.71022723 32.87990696 24.75 36.125 C28.75847373 34.75066615 31.77725496 33.18032129 34.75 30.125 C36.07548832 26.68163226 36.07548832 26.68163226 35.75 23.125 C27.64798709 15.2277311 15.24847671 15.67552493 4.61328125 15.77612305 C-18.04492877 16.36972601 -44.50475754 24.17806584 -60.25 41.125 Z M4.94921875 36.30078125 C3.57554173 38.22022851 3.57554173 38.22022851 2.75 41.125 C-0.05634087 39.98167594 -1.50013159 38.86170359 -3.625 36.625 C-7.0375168 33.374984 -9.67673019 32.16202546 -14.421875 32.09375 C-20.9746993 32.53353687 -25.00053321 34.68807764 -29.5 39.5625 C-34.27397285 46.55296025 -33.92660257 53.97974602 -33.25 62.125 C-31.7439789 68.25393398 -27.96426869 71.65358438 -23.0546875 75.38671875 C-20.87214937 77.48894703 -20.36167216 79.3101603 -19.25 82.125 C-17.11785955 86.44040875 -14.91721396 89.96400913 -11.25 93.125 C-6.26636536 94.19048208 -1.75444546 93.5524866 3.25 92.8125 C4.549375 92.66748047 5.84875 92.52246094 7.1875 92.37304688 C10.38500377 92.00862549 13.56609281 91.59170582 16.75 91.125 C16.94768192 85.03858473 16.94768192 85.03858473 15.75 79.125 C15.42 78.135 15.09 77.145 14.75 76.125 C15.678125 75.42375 16.60625 74.7225 17.5625 74 C21.3135883 70.80758443 23.45511912 67.88190218 23.99609375 62.82421875 C24.25333461 52.61024338 24.13831948 40.50966931 17.75 32.125 C11.71288045 29.10644023 8.69388556 31.61257635 4.94921875 36.30078125 Z M71.39306641 38.42260742 C70.88437012 39.01920166 70.37567383 39.6157959 69.8515625 40.23046875 C69.00851562 41.21176758 69.00851562 41.21176758 68.1484375 42.21289062 C67.56320312 42.90576172 66.97796875 43.59863281 66.375 44.3125 C65.7975 44.98603516 65.22 45.65957031 64.625 46.35351562 C62.98870382 48.26813158 61.36699778 50.19407767 59.75 52.125 C58.55503906 53.54232422 58.55503906 53.54232422 57.3359375 54.98828125 C55.55133346 56.94916646 55.55133346 56.94916646 55.75 59.125 C62.13224396 58.9654439 65.52493466 55.48519536 69.75 51.125 C73.62434902 46.45591272 74.34419538 43.00916705 74.75 37.125 C72.67799102 36.89462296 72.67799102 36.89462296 71.39306641 38.42260742 Z M44.75 64.125 C44.09 65.445 43.43 66.765 42.75 68.125 C43.74 67.465 44.73 66.805 45.75 66.125 C45.42 65.465 45.09 64.805 44.75 64.125 Z M49.75 65.125 C47.17903039 67.85495109 44.97260573 70.90413472 42.6875 73.875 C42.03716797 74.7 41.38683594 75.525 40.71679688 76.375 C39.78770508 77.57382813 39.78770508 77.57382813 38.83984375 78.796875 C38.27128662 79.5300293 37.70272949 80.26318359 37.11694336 81.01855469 C35.76709748 83.09865297 35.1800716 84.70127109 34.75 87.125 C39.64984267 86.66920068 42.21970256 85.56239487 45.75 82.125 C49.79202668 76.81262208 52.14732956 71.87960245 51.75 65.125 C51.09 65.125 50.43 65.125 49.75 65.125 Z M41.75 68.125 C34.00632119 76.2597737 27.38167278 85.08078974 20.75 94.125 C21.74 94.455 22.73 94.785 23.75 95.125 C28.68794037 89.07076991 33.42874643 82.91481734 37.98828125 76.5703125 C39.55055475 74.40183531 41.13855358 72.25706757 42.75 70.125 C42.42 69.465 42.09 68.805 41.75 68.125 Z M-43.25 75.125 C-43.25 76.115 -43.25 77.105 -43.25 78.125 C-42.28900391 78.45371094 -42.28900391 78.45371094 -41.30859375 78.7890625 C-33.78660174 81.54675257 -27.84873431 84.65963023 -24 91.9375 C-22.36495985 95.53182878 -21.23655772 99.22621615 -20.25390625 103.046875 C-17.82357824 108.07774855 -12.47456581 110.16761143 -7.625 112.375 C-6.49835938 112.89578125 -5.37171875 113.4165625 -4.2109375 113.953125 C-1.31582229 115.30900213 -1.31582229 115.30900213 1.75 115.125 C3.28705032 113.58740701 3.28705032 113.58740701 4.66796875 111.51171875 C5.19970703 110.75826172 5.73144531 110.00480469 6.27929688 109.22851562 C6.82650391 108.43123047 7.37371094 107.63394531 7.9375 106.8125 C8.77571289 105.63397461 8.77571289 105.63397461 9.63085938 104.43164062 C12.84295495 100.18286154 12.84295495 100.18286154 13.75 95.125 C12.96351074 95.20242432 12.17702148 95.27984863 11.36669922 95.35961914 C7.78863123 95.68429861 4.20895697 95.93647643 0.625 96.1875 C-0.6125 96.31060547 -1.85 96.43371094 -3.125 96.56054688 C-6.7038033 96.78181697 -9.73867573 96.8677856 -13.25 96.125 C-16.15871791 93.49727396 -17.58622238 90.62416933 -19.25 87.125 C-24.61421946 81.0730601 -30.22897129 76.75891326 -38.25 75.125 C-41.04244045 74.95571457 -41.04244045 74.95571457 -43.25 75.125 Z M18.75 79.125 C19.41 81.765 20.07 84.405 20.75 87.125 C21.41 87.125 22.07 87.125 22.75 87.125 C22.42 84.815 22.09 82.505 21.75 80.125 C20.76 79.795 19.77 79.465 18.75 79.125 Z M-30.25 98.125 C-29.3551336 104.64959551 -25.41330605 108.54548004 -20.4296875 112.609375 C-14.96292095 116.31488203 -8.65540482 118.60741178 -2.25 120.125 C-1.59 119.795 -0.93 119.465 -0.25 119.125 C-1.3121875 118.62871094 -2.374375 118.13242188 -3.46875 117.62109375 C-14.09020537 112.55584361 -21.82477585 107.35027849 -29.25 98.125 C-29.58 98.125 -29.91 98.125 -30.25 98.125 Z M18.75 99.125 C18.75 99.785 18.75 100.445 18.75 101.125 C19.48605469 101.24617188 20.22210938 101.36734375 20.98046875 101.4921875 C21.95628906 101.65976563 22.93210937 101.82734375 23.9375 102 C25.38189453 102.24363281 25.38189453 102.24363281 26.85546875 102.4921875 C29.75 103.125 29.75 103.125 32.42578125 104.2578125 C34.85155769 105.43998531 34.85155769 105.43998531 37.75 104.125 C31.53476975 99.13856885 26.59540858 98.47602319 18.75 99.125 Z M10.75 107.125 C9.16173778 108.83997772 9.16173778 108.83997772 7.625 111 C7.08617187 111.71929687 6.54734375 112.43859375 5.9921875 113.1796875 C4.57060368 115.02126006 4.57060368 115.02126006 4.75 117.125 C6.07 117.125 7.39 117.125 8.75 117.125 C11.71743313 113.49813728 12.75 111.8796322 12.75 107.125 C12.09 107.125 11.43 107.125 10.75 107.125 Z M14.75 112.125 C10.91635584 116.70213879 9.61807314 120.18829126 9.75 126.125 C7.69379857 129.63767745 5.49356166 131.31693155 2 133.1875 C-2.93970744 136.0888895 -5.36451108 140.32191594 -8.3515625 145.09765625 C-10.76690788 148.94928726 -13.46407627 152.53706792 -16.25 156.125 C-18.23 155.465 -20.21 154.805 -22.25 154.125 C-21.86471495 147.96043922 -19.77913975 144.13872252 -16.25 139.125 C-18.26481734 137.11018266 -22.04076863 137.4035973 -24.8125 137.0625 C-25.52341797 136.97162109 -26.23433594 136.88074219 -26.96679688 136.78710938 C-28.72738403 136.56260497 -30.48863478 136.34331603 -32.25 136.125 C-36.20466662 145.69529321 -35.88971902 159.74665193 -32.625 169.5 C-29.5239194 176.27087148 -26.13690602 180.64524015 -19.1875 183.625 C-12.67123086 185.6827692 -6.92584063 185.05511712 -0.25 184.125 C1.68746094 183.91617188 1.68746094 183.91617188 3.6640625 183.703125 C13.8336429 182.53974105 21.65781025 180.9581648 28.75 173.125 C33.89072168 165.27023272 35.0792986 157.01774611 35 147.8125 C35.00773437 146.92626953 35.01546875 146.04003906 35.0234375 145.12695312 C35.19474084 134.31676128 35.19474084 134.31676128 30.83203125 124.8984375 C29.70861328 124.20621094 29.70861328 124.20621094 28.5625 123.5 C24.34223588 120.64791828 21.34085881 117.59162551 18.16015625 113.62890625 C17.69480469 113.13261719 17.22945312 112.63632813 16.75 112.125 C16.09 112.125 15.43 112.125 14.75 112.125 Z M-43.25 123.125 C-41.88408942 126.38377144 -40.57304799 127.9164639 -37.5625 129.75 C-36.91925781 130.15476562 -36.27601563 130.55953125 -35.61328125 130.9765625 C-29.87701373 133.76410407 -24.63576676 134.36191623 -18.3125 134.25 C-17.62865234 134.24097656 -16.94480469 134.23195313 -16.24023438 134.22265625 C-14.57666713 134.19938958 -12.91328369 134.16353167 -11.25 134.125 C-11.25 133.795 -11.25 133.465 -11.25 133.125 C-12.28898437 132.95484375 -13.32796875 132.7846875 -14.3984375 132.609375 C-32.86577403 129.45317154 -32.86577403 129.45317154 -39.390625 124.5 C-41.13258644 122.92680633 -41.13258644 122.92680633 -43.25 123.125 Z M-11.67578125 138.34765625 C-13.43203394 140.33052219 -14.94344986 142.37491547 -16.4375 144.5625 C-16.96730469 145.32433594 -17.49710937 146.08617187 -18.04296875 146.87109375 C-19.56472948 149.28657219 -19.56472948 149.28657219 -19.25 153.125 C-14.9658797 151.60047071 -13.38529708 148.73696542 -11 145 C-10.29359375 143.90429688 -9.5871875 142.80859375 -8.859375 141.6796875 C-8.32828125 140.83664062 -7.7971875 139.99359375 -7.25 139.125 C-7.58 138.465 -7.91 137.805 -8.25 137.125 C-10.31000141 136.90801246 -10.31000141 136.90801246 -11.67578125 138.34765625 Z M100.75 139.125 C97.06903365 143.87463401 96.16330414 147.13208997 95.75 153.125 C99.84085807 156.1001695 102.72361831 156.67333255 107.75 156.125 C110.15083438 154.76614884 110.15083438 154.76614884 111.75 153.125 C109.81587003 146.06162481 109.81587003 146.06162481 105.75 140.125 C105.09 140.125 104.43 140.125 103.75 140.125 C103.09 140.785 102.43 141.445 101.75 142.125 C101.42 141.135 101.09 140.145 100.75 139.125 Z M94.75 157.125 C93.43613604 158.20797749 93.43613604 158.20797749 93.6953125 160.828125 C94.09245347 168.6673424 95.43719436 174.99348948 98.59375 182.1875 C99.8079594 185.27224822 100.56684051 187.81025998 100.75 191.125 C99.53515625 193.4609375 99.53515625 193.4609375 97.8125 195.5 C97.24660156 196.18835938 96.68070313 196.87671875 96.09765625 197.5859375 C95.65292969 198.09382813 95.20820313 198.60171875 94.75 199.125 C96.59725052 199.81659401 96.59725052 199.81659401 98.75 200.125 C99.74 199.465 100.73 198.805 101.75 198.125 C104.125 198.4375 104.125 198.4375 106.75 199.125 C108.1421875 199.4034375 108.1421875 199.4034375 109.5625 199.6875 C110.284375 199.831875 111.00625 199.97625 111.75 200.125 C111.13125 199.073125 110.5125 198.02125 109.875 196.9375 C109.13733303 195.68346615 108.43130413 194.41052641 107.75 193.125 C107.31816406 192.35671875 106.88632812 191.5884375 106.44140625 190.796875 C105.44230253 186.93593181 106.76965604 185.05510572 108.5625 181.5625 C111.73446952 175.28388757 112.88292035 171.41703543 112.8125 164.375 C112.80347656 163.20453125 112.79445313 162.0340625 112.78515625 160.828125 C112.77355469 159.93609375 112.76195312 159.0440625 112.75 158.125 C112.09 157.795 111.43 157.465 110.75 157.125 C110.04875 157.455 109.3475 157.785 108.625 158.125 C103.85465383 159.78425084 99.50894204 158.71131401 94.75 157.125 Z M88.75 168.125 C88.75 169.445 88.75 170.765 88.75 172.125 C89.41 172.125 90.07 172.125 90.75 172.125 C90.75 170.805 90.75 169.485 90.75 168.125 C90.09 168.125 89.43 168.125 88.75 168.125 Z M17.4375 186.625 C16.55449219 186.9034375 15.67148437 187.181875 14.76171875 187.46875 C14.09785156 187.6853125 13.43398438 187.901875 12.75 188.125 C12.75 189.445 12.75 190.765 12.75 192.125 C15.49047859 194.53532567 15.49047859 194.53532567 18.75 196.125 C19.74 195.795 20.73 195.465 21.75 195.125 C21.75 194.465 21.75 193.805 21.75 193.125 C24.72 193.455 27.69 193.785 30.75 194.125 C30.75 192.805 30.75 191.485 30.75 190.125 C32.4 190.125 34.05 190.125 35.75 190.125 C33.38448058 187.38597751 31.20142779 186.19329908 27.75 185.125 C23.98918704 184.89191779 21.01430054 185.48042383 17.4375 186.625 Z M-61.1875 185.6875 C-61.87972656 185.85733398 -62.57195312 186.02716797 -63.28515625 186.20214844 C-69.34158888 187.8495208 -73.77291497 190.69766036 -78.25 195.125 C-75.15636311 198.38004403 -72.35432418 200.2593981 -68.25 202.125 C-70.7717982 203.02564221 -71.82303018 203.31907719 -74.3125 202.1875 C-75.2715625 201.6615625 -75.2715625 201.6615625 -76.25 201.125 C-77.24 201.125 -78.23 201.125 -79.25 201.125 C-79.27726927 203.47924675 -79.29696719 205.83316962 -79.3125 208.1875 C-79.32410156 209.49847656 -79.33570313 210.80945313 -79.34765625 212.16015625 C-79.31542969 213.46855469 -79.28320312 214.77695312 -79.25 216.125 C-79.27578125 217.33414063 -79.3015625 218.54328125 -79.328125 219.7890625 C-78.08904852 223.62301653 -77.48531204 223.97399542 -74.13671875 225.92578125 C-72.41653336 226.78918965 -70.68261911 227.62566803 -68.9375 228.4375 C-67.63522461 229.08041992 -67.63522461 229.08041992 -66.30664062 229.73632812 C-64.68753636 230.53283299 -63.06325251 231.31895644 -61.43237305 232.09106445 C-59.98802524 232.77534826 -58.56111249 233.49782955 -57.15551758 234.25854492 C-55.14372156 235.33196298 -55.14372156 235.33196298 -52.25 235.125 C-52.25 232.485 -52.25 229.845 -52.25 227.125 C-51.26 227.125 -50.27 227.125 -49.25 227.125 C-48.92 230.425 -48.59 233.725 -48.25 237.125 C-44.02761723 238.65333979 -40.04198091 239.57006549 -35.59375 240.16015625 C-34.32273437 240.32966797 -33.05171875 240.49917969 -31.7421875 240.67382812 C-31.08444336 240.75834229 -30.42669922 240.84285645 -29.74902344 240.92993164 C-27.78221313 241.18334943 -25.81686427 241.44802781 -23.8515625 241.71289062 C-15.3162577 242.83347139 -6.84054109 243.58530927 1.75 244.125 C1.75 236.535 1.75 228.945 1.75 221.125 C-1.59682183 219.78627127 -3.92944776 218.86416206 -7.31640625 218.2734375 C-8.04923828 218.14453125 -8.78207031 218.015625 -9.53710938 217.8828125 C-10.28798828 217.75648438 -11.03886719 217.63015625 -11.8125 217.5 C-12.56724609 217.3659375 -13.32199219 217.231875 -14.09960938 217.09375 C-17.55122478 216.49770011 -20.73702728 216.125 -24.25 216.125 C-23.92 215.465 -23.59 214.805 -23.25 214.125 C-11.18103448 214.97799456 -11.18103448 214.97799456 -6.6875 215.6875 C1.39808614 216.7165746 8.95152041 216.52453218 16.75 214.125 C14.69045353 217.2143197 13.90316432 217.76764294 10.6875 219.25 C8.01904813 220.39923226 8.01904813 220.39923226 5.75 222.125 C5.65116664 223.58978506 5.61920711 225.05922958 5.6171875 226.52734375 C5.61589844 227.41744141 5.61460937 228.30753906 5.61328125 229.22460938 C5.61714844 230.16111328 5.62101562 231.09761719 5.625 232.0625 C5.62113281 232.99513672 5.61726563 233.92777344 5.61328125 234.88867188 C5.61457031 235.78005859 5.61585938 236.67144531 5.6171875 237.58984375 C5.61887939 238.82142212 5.61887939 238.82142212 5.62060547 240.07788086 C5.6206216 242.19116024 5.6206216 242.19116024 6.75 244.125 C12.69 242.805 18.63 241.485 24.75 240.125 C25.08 238.145 25.41 236.165 25.75 234.125 C26.41 234.125 27.07 234.125 27.75 234.125 C28.245 236.105 28.245 236.105 28.75 238.125 C38.86888966 237.80391978 38.86888966 237.80391978 47.21875 232.640625 C51.98786814 226.44077142 51.22307601 219.61011376 50.75 212.125 C41.80571013 211.54448119 33.45163476 213.31125975 24.75 215.125 C27.06881505 212.44598068 29.06814468 211.46295597 32.4375 210.4375 C33.24574219 210.18613281 34.05398438 209.93476563 34.88671875 209.67578125 C35.50160156 209.49402344 36.11648438 209.31226563 36.75 209.125 C35.76 208.135 35.76 208.135 34.75 207.125 C35.73355469 207.24101562 36.71710938 207.35703125 37.73046875 207.4765625 C51.26629973 208.53392022 61.0923715 203.57952557 72.75 197.125 C72.75 196.135 72.75 195.145 72.75 194.125 C61.41535698 188.23860556 50.35933323 186.45704809 37.75 185.125 C38.245 185.7025 38.74 186.28 39.25 186.875 C40.75 189.125 40.75 189.125 40.75 193.125 C39.780625 193.41375 38.81125 193.7025 37.8125 194 C34.64335797 194.76714682 34.64335797 194.76714682 33.75 197.125 C33.12351562 197.10179687 32.49703125 197.07859375 31.8515625 197.0546875 C31.03429687 197.03664063 30.21703125 197.01859375 29.375 197 C28.15683594 196.96519531 28.15683594 196.96519531 26.9140625 196.9296875 C24.53657757 196.91129949 24.53657757 196.91129949 22.75 199.125 C15.87502705 199.26530557 11.64008503 195.68642351 6.75 191.125 C5.76 189.64 5.76 189.64 4.75 188.125 C-0.76165965 187.6579102 -5.03349732 188.38616577 -10.25 190.125 C-9.755 195.075 -9.755 195.075 -9.25 200.125 C-12.06630004 200.78765883 -14.46794429 201.12064111 -17.375 201.0625 C-20.4519983 200.87220386 -20.4519983 200.87220386 -23.25 203.125 C-28.80555556 202.56944444 -28.80555556 202.56944444 -30.25 201.125 C-32.10287502 201.05273498 -33.95833878 201.0411878 -35.8125 201.0625 C-36.82441406 201.07152344 -37.83632813 201.08054687 -38.87890625 201.08984375 C-39.66136719 201.10144531 -40.44382812 201.11304688 -41.25 201.125 C-40.8196478 195.96077356 -40.56251866 193.19036381 -37.25 189.125 C-37.745 187.64 -37.745 187.64 -38.25 186.125 C-45.89706752 183.15981055 -53.36211791 183.75025941 -61.1875 185.6875 Z M-34.70703125 190.55859375 C-36.19312609 192.35564761 -37.30112768 193.9991112 -38.25 196.125 C-37.59 196.785 -36.93 197.445 -36.25 198.125 C-35.30125 197.939375 -34.3525 197.75375 -33.375 197.5625 C-32.34375 197.418125 -31.3125 197.27375 -30.25 197.125 C-29.569375 197.640625 -28.88875 198.15625 -28.1875 198.6875 C-27.548125 199.161875 -26.90875 199.63625 -26.25 200.125 C-23.69288628 199.43568333 -23.69288628 199.43568333 -21.25 198.125 C-17.91785251 196.9795743 -15.65743661 197.27314085 -12.25 198.125 C-12.82452746 194.19424356 -12.82452746 194.19424356 -15.25 191.125 C-25.17958101 188.5073626 -25.17958101 188.5073626 -34.70703125 190.55859375 Z M66.875 203.3125 C65.95654297 203.75045898 65.95654297 203.75045898 65.01953125 204.19726562 C60.8498898 206.27315778 57.66591137 208.47873795 54.75 212.125 C54.15249927 214.78173112 54.15249927 214.78173112 54.4375 217.4375 C54.48261719 218.32050781 54.52773438 219.20351563 54.57421875 220.11328125 C54.63222656 220.77714844 54.69023437 221.44101562 54.75 222.125 C59.59312209 221.47759036 64.34254809 220.64471256 69.125 219.625 C70.34960938 219.3671875 71.57421875 219.109375 72.8359375 218.84375 C75.62512649 218.42227348 75.62512649 218.42227348 76.75 217.125 C76.82325168 214.26232433 76.84238205 211.424281 76.8125 208.5625 C76.80798828 207.75619141 76.80347656 206.94988281 76.79882812 206.11914062 C76.78700518 204.12106244 76.76906914 202.12302217 76.75 200.125 C72.90573616 200.125 70.23077761 201.62763453 66.875 203.3125 Z M74.75 223.125 C75.08 225.105 75.41 227.085 75.75 229.125 C78.72922593 229.15183987 81.70821295 229.17176037 84.6875 229.1875 C85.53763672 229.19587891 86.38777344 229.20425781 87.26367188 229.21289062 C88.07255859 229.21611328 88.88144531 229.21933594 89.71484375 229.22265625 C90.4637085 229.22789307 91.21257324 229.23312988 91.98413086 229.23852539 C93.77667739 229.31841752 93.77667739 229.31841752 94.75 228.125 C94.79080783 226.12541636 94.79254356 224.12454746 94.75 222.125 C91.41749498 221.01416499 88.81961042 220.95740415 85.3125 220.9375 C83.61287109 220.91623047 83.61287109 220.91623047 81.87890625 220.89453125 C78.89542021 221.11428865 77.25704577 221.56656614 74.75 223.125 Z M60.75 225.125 C61.74 227.435 62.73 229.745 63.75 232.125 C68.09184202 231.94035634 68.09184202 231.94035634 71.75 230.125 C71.79080783 228.12541636 71.79254356 226.12454746 71.75 224.125 C67.45700357 222.86235399 64.87168689 223.49549588 60.75 225.125 Z M97.75 224.125 C97.75 226.105 97.75 228.085 97.75 230.125 C100.39 231.115 103.03 232.105 105.75 233.125 C107.9513866 229.32072508 107.9513866 229.32072508 108.75 225.125 C107.2937328 224.76243142 105.83488815 224.41020207 104.375 224.0625 C103.56289063 223.86527344 102.75078125 223.66804687 101.9140625 223.46484375 C99.70838716 222.90390681 99.70838716 222.90390681 97.75 224.125 Z M53.75 228.125 C51.99471981 230.2697024 51.99471981 230.2697024 50.75 233.125 C50.193125 234.218125 49.63625 235.31125 49.0625 236.4375 C48.629375 237.324375 48.19625 238.21125 47.75 239.125 C52.92105783 243.95132064 59.23233177 246.61333917 66.1875 247.625 C68.86623411 247.33758384 68.86623411 247.33758384 70.6875 245.3125 C72.10844018 243.03543228 72.10844018 243.03543228 70.75 240.125 C68.2157993 239.08495231 65.79814798 238.22521603 63.1875 237.4375 C62.47658203 237.21255859 61.76566406 236.98761719 61.03320312 236.75585938 C59.27551181 236.20141983 57.51315902 235.66179811 55.75 235.125 C57.07 234.135 58.39 233.145 59.75 232.125 C59.42 230.805 59.09 229.485 58.75 228.125 C56.37694422 227.70719121 56.37694422 227.70719121 53.75 228.125 Z M110.75 229.125 C111.31371414 232.39454202 112.24962266 233.95075883 114.75 236.125 C113.698125 236.24875 112.64625 236.3725 111.5625 236.5 C108.29041229 237.03640782 105.74463924 237.76380035 102.75 239.125 C103.40585189 242.73492379 103.40585189 242.73492379 104.75 246.125 C110.32617147 245.66031904 115.1438609 244.44855799 119.75 241.125 C121.16518518 238.79912158 121.16518518 238.79912158 120.75 236.125 C119.44861075 232.43773045 118.6331166 230.62040687 115.1875 228.6875 C112.75977669 227.85474439 112.75977669 227.85474439 110.75 229.125 Z M72.75 245.125 C73.08 246.445 73.41 247.765 73.75 249.125 C77.6666043 249.1830966 81.58309763 249.21862893 85.5 249.25 C86.61117187 249.26675781 87.72234375 249.28351563 88.8671875 249.30078125 C89.93710937 249.30722656 91.00703125 249.31367188 92.109375 249.3203125 C93.09389648 249.33078613 94.07841797 249.34125977 95.09277344 249.35205078 C97.80973111 249.11989618 99.43112513 248.51536273 101.75 247.125 C100.59826645 244.65699953 99.70216435 243.07716435 97.75 241.125 C94.50092854 240.649136 91.21748498 240.75462295 87.9375 240.75 C87.03451172 240.72550781 86.13152344 240.70101562 85.20117188 240.67578125 C79.76689997 240.65182414 76.67697039 240.95928298 72.75 245.125 Z " fill="#000000" transform="translate(391.25,126.875)"/>
<path d="M0 0 C1.32 0.66 2.64 1.32 4 2 C4 3.98 4 5.96 4 8 C2.0625 8.5625 2.0625 8.5625 0 9 C-1 8 -1 8 -1.125 4.5 C-1 1 -1 1 0 0 Z " fill="#000000" transform="translate(405,170)"/>
<path d="M0 0 C1.65 0.33 3.3 0.66 5 1 C5.79953138 4.28696233 6.09658936 5.71023192 5 9 C3.0625 9.8125 3.0625 9.8125 1 10 C-1 8 -1 8 -1.1875 5 C-1 2 -1 2 0 0 Z " fill="#000000" transform="translate(375,172)"/>
<path d="M0 0 C3.53686181 1.71036303 6.99060333 3.46044985 10 6 C10 10 10 10 8.20703125 11.88671875 C7.41683594 12.48097656 6.62664062 13.07523438 5.8125 13.6875 C5.03519531 14.28949219 4.25789063 14.89148438 3.45703125 15.51171875 C0.83618499 17.09922658 -0.95281486 17.76261992 -4 18 C-8.29560818 16.78841821 -11.38052442 14.85177893 -14 11.25 C-14.33 10.5075 -14.66 9.765 -15 9 C-13.87970983 7.51726301 -12.75361382 6.03891114 -11.625 4.5625 C-10.99851562 3.73878906 -10.37203125 2.91507813 -9.7265625 2.06640625 C-6.59015906 -1.68734357 -4.57108495 -1.22439775 0 0 Z M-6 3 C-8.26877535 5.41880929 -8.26877535 5.41880929 -10 8 C-6.6853333 10.02907167 -4.5684021 10.12742133 -0.75 9.625 C0.14203125 9.51414063 1.0340625 9.40328125 1.953125 9.2890625 C2.62859375 9.19367188 3.3040625 9.09828125 4 9 C3.27486327 5.85803765 3.27486327 5.85803765 0.6875 4.3125 C-2.10056642 2.70744313 -2.10056642 2.70744313 -6 3 Z M-6 12 C-6 12.66 -6 13.32 -6 14 C-4.02 14 -2.04 14 0 14 C0 13.34 0 12.68 0 12 C-1.98 12 -3.96 12 -6 12 Z " fill="#000000" transform="translate(399,179)"/>
<path d="M0 0 C2.0625 0.4375 2.0625 0.4375 4 1 C4 2.32 4 3.64 4 5 C2.68 5.33 1.36 5.66 0 6 C-0.38218767 4.34385343 -0.71395102 2.67542976 -1 1 C-0.67 0.67 -0.34 0.34 0 0 Z " fill="#000000" transform="translate(375,227)"/>
<path d="M0 0 C1.98 0.495 1.98 0.495 4 1 C3.67 1.99 3.34 2.98 3 4 C1.68 3.67 0.36 3.34 -1 3 C-0.67 2.01 -0.34 1.02 0 0 Z " fill="#000000" transform="translate(494,273)"/>
<path d="M0 0 C3 1 3 1 4.1875 2.6875 C5.20201728 5.57497226 5.20260309 7.96095372 5 11 C4 12 4 12 1.6875 12.375 C-1 12 -1 12 -3.3125 9.875 C-5.23503152 6.59957594 -5.34718988 4.73229119 -5 1 C-4.01 1.33 -3.02 1.66 -2 2 C-1.67 3.65 -1.34 5.3 -1 7 C-0.34 7 0.32 7 1 7 C0.67 4.69 0.34 2.38 0 0 Z " fill="#000000" transform="translate(496,288)"/>
<path d="M0 0 C3.664173 0.37581262 6.46567865 1.18676561 9.6875 2.875 C15.36255651 5.58020828 21.43780882 6.16753195 27.61206055 6.96044922 C28.42070557 7.0688916 29.22935059 7.17733398 30.0625 7.2890625 C30.79597656 7.37881348 31.52945313 7.46856445 32.28515625 7.56103516 C32.85105469 7.70589355 33.41695313 7.85075195 34 8 C34.495 8.99 34.495 8.99 35 10 C31.29583874 12.37590142 28.07015427 12.20500286 23.75 12.125 C22.48671875 12.10695313 21.2234375 12.08890625 19.921875 12.0703125 C18.95765625 12.04710937 17.9934375 12.02390625 17 12 C16.34 13.98 15.68 15.96 15 18 C14.34 18 13.68 18 13 18 C12.91363281 17.37351562 12.82726562 16.74703125 12.73828125 16.1015625 C12.31518104 13.64059433 11.83284348 11.35538547 11 9 C8.81172873 7.54018811 8.81172873 7.54018811 6 7 C4.71177367 6.32381481 3.44107698 5.61344312 2.1875 4.875 C1.135625 4.25625 0.08375 3.6375 -1 3 C-0.67 2.01 -0.34 1.02 0 0 Z " fill="#000000" transform="translate(326,330)"/>
<path d="M0 0 C3.50803019 1.95640145 5.84578888 3.5818413 8.25 6.8125 C8.0625 10.125 8.0625 10.125 7.25 12.8125 C5.125 13.625 5.125 13.625 2.25 13.8125 C0.79262592 12.54944247 -0.6621698 11.2822839 -2.07421875 9.96875 C-5.23211311 7.7898765 -8.02839401 8.39231868 -11.75 8.8125 C-16.4136672 10.51077881 -17.73518376 13.55872467 -19.765625 17.8828125 C-21.85265862 24.09422207 -21.58248159 30.17630828 -19.625 36.375 C-17.1975904 39.53063249 -15.56303138 40.61210123 -11.75 41.8125 C-8.57609314 41.9915409 -5.78786213 41.77339549 -2.75 40.8125 C0.80091023 37.15062382 0.83597427 32.69800361 1.25 27.8125 C0.27417969 27.91949219 -0.70164062 28.02648437 -1.70703125 28.13671875 C-2.97933594 28.25660156 -4.25164062 28.37648438 -5.5625 28.5 C-6.82707031 28.62761719 -8.09164063 28.75523437 -9.39453125 28.88671875 C-12.75 28.8125 -12.75 28.8125 -14.71875 27.5 C-15.75 25.8125 -15.75 25.8125 -15.4375 23.125 C-15.0971875 21.9803125 -15.0971875 21.9803125 -14.75 20.8125 C-8.04065812 18.25656024 -0.85343948 17.98257554 6.25 18.8125 C8.52605231 20.48286687 9.11272621 21.36324031 9.9375 24.0625 C10.87183895 32.28468279 10.14565113 40.03206658 5 46.75 C-1.18643694 51.38982771 -5.42234871 52.37097308 -13.03515625 51.37890625 C-18.75873643 50.18477801 -23.00702915 48.18022392 -26.625 43.5 C-31.31873363 36.02479459 -31.78431924 27.70551216 -30.28515625 19.1640625 C-28.39190783 11.8823378 -24.82425657 5.72084598 -18.5625 1.375 C-12.42781327 -2.0331593 -6.6136754 -2.09433054 0 0 Z " fill="#000000" transform="translate(437.75,405.1875)"/>
<path d="M0 0 C0.77794922 -0.02449219 1.55589844 -0.04898437 2.35742188 -0.07421875 C9.63309532 -0.11062746 14.81026354 2.03957931 20.125 7 C24.7335395 13.21762278 25.98596589 20.57611573 24.88671875 28.1171875 C23.48023827 33.64743046 19.99189523 37.32795195 15.3125 40.375 C9.55590989 42.63248632 4.40386501 42.54188671 -1.6875 42.375 C-2.3475 45.345 -3.0075 48.315 -3.6875 51.375 C-5.6675 51.87 -5.6675 51.87 -7.6875 52.375 C-10.6875 50.375 -10.6875 50.375 -11.6875 47.375 C-11.78843646 45.89757047 -11.83578078 44.41612041 -11.84863281 42.93530273 C-11.85824036 42.04105087 -11.8678479 41.14679901 -11.87774658 40.22544861 C-11.88199646 39.26288651 -11.88624634 38.3003244 -11.890625 37.30859375 C-11.89632507 36.31875992 -11.90202515 35.32892609 -11.90789795 34.30909729 C-11.91734265 32.2168993 -11.92387983 30.12468646 -11.92773438 28.0324707 C-11.93747265 24.82151712 -11.96851429 21.61119485 -12 18.40039062 C-12.00652683 16.36979548 -12.01177856 14.33919574 -12.015625 12.30859375 C-12.0279718 11.34400742 -12.0403186 10.37942108 -12.05303955 9.38560486 C-12.05003845 8.49450516 -12.04703735 7.60340546 -12.04394531 6.68530273 C-12.04759094 5.89937241 -12.05123657 5.11344208 -12.05499268 4.30369568 C-11.93372009 3.6672261 -11.81244751 3.03075653 -11.6875 2.375 C-7.80442459 -0.21371694 -4.50480194 0.00728343 0 0 Z M-2.6875 9.375 C-2.77431476 12.99984999 -2.82782721 16.62443443 -2.875 20.25 C-2.90013672 21.28253906 -2.92527344 22.31507813 -2.95117188 23.37890625 C-2.96083984 24.36503906 -2.97050781 25.35117187 -2.98046875 26.3671875 C-2.9961792 27.27839355 -3.01188965 28.18959961 -3.02807617 29.12841797 C-2.91568604 29.86979004 -2.8032959 30.61116211 -2.6875 31.375 C1.0364606 33.8576404 3.99936587 33.90496922 8.3125 33.375 C11.51301784 32.18962302 13.57157783 31.31799185 15.6875 28.625 C17.37065334 22.56564798 16.2483643 17.82731942 13.3125 12.375 C10.9185465 10.01913213 9.67751924 9.41046171 6.296875 9.08203125 C4.69585937 9.13423828 4.69585937 9.13423828 3.0625 9.1875 C1.98484375 9.21457031 0.9071875 9.24164063 -0.203125 9.26953125 C-1.02296875 9.30433594 -1.8428125 9.33914063 -2.6875 9.375 Z " fill="#000000" transform="translate(303.6875,404.625)"/>
<path d="M0 0 C1.2375 0.1546875 1.2375 0.1546875 2.5 0.3125 C4.59495403 3.45493105 4.75626893 4.22419603 4.79052734 7.81225586 C4.8096669 9.1739817 4.8096669 9.1739817 4.82919312 10.56321716 C4.83253159 12.03045982 4.83253159 12.03045982 4.8359375 13.52734375 C4.8425943 14.53463028 4.8492511 15.54191681 4.85610962 16.57972717 C4.86623725 18.71060356 4.87092661 20.84151168 4.87060547 22.97241211 C4.87497867 26.234092 4.91129789 29.49441897 4.94921875 32.75585938 C4.95508682 34.8255162 4.95905628 36.89517946 4.9609375 38.96484375 C4.97530853 39.94098129 4.98967957 40.91711884 5.00448608 41.9228363 C4.95861291 48.71420607 4.95861291 48.71420607 2.47119141 51.95922852 C1.82069824 52.40580811 1.17020508 52.8523877 0.5 53.3125 C-1.96508789 52.48266602 -1.96508789 52.48266602 -4.5 50.3125 C-5.27374697 46.75551932 -5.12747817 43.21592761 -5.05859375 39.58984375 C-5.05626236 38.53342178 -5.05393097 37.47699982 -5.05152893 36.38856506 C-5.04178293 34.15503873 -5.01997647 31.92153746 -4.98706055 29.68823242 C-4.93764247 26.259884 -4.92558097 22.83296929 -4.91992188 19.40429688 C-4.90583691 17.23696382 -4.88963288 15.06964328 -4.87109375 12.90234375 C-4.86573105 11.87213608 -4.86036835 10.84192841 -4.85484314 9.78050232 C-4.83885574 8.82934036 -4.82286835 7.87817841 -4.80639648 6.89819336 C-4.79043678 5.63935585 -4.79043678 5.63935585 -4.77415466 4.35508728 C-4.34053771 1.12442736 -3.14467379 0.39308422 0 0 Z " fill="#000000" transform="translate(342.5,404.6875)"/>
<path d="M0 0 C2.6875 0.875 2.6875 0.875 5 2 C5.12674312 8.62007209 5.21432681 15.23983157 5.2746582 21.86083984 C5.29980743 24.11323743 5.33393118 26.36555336 5.37719727 28.61767578 C5.437829 31.854697 5.46620592 35.09063972 5.48828125 38.328125 C5.51408768 39.33554749 5.5398941 40.34296997 5.56648254 41.38092041 C5.56928006 48.34903831 5.56928006 48.34903831 2.65698242 51.67919922 C0 53 0 53 -3 52.8046875 C-7.39073338 50.16338695 -8.83175981 46.65732142 -11 42.125 C-11.59941406 40.93003906 -11.59941406 40.93003906 -12.2109375 39.7109375 C-13.0373813 38.05804989 -13.85492874 36.40068773 -14.6640625 34.73925781 C-16.19280196 31.60467143 -17.75101239 28.48558089 -19.3125 25.3671875 C-19.82425781 24.3447998 -20.33601563 23.32241211 -20.86328125 22.26904297 C-21.23839844 21.52025879 -21.61351562 20.77147461 -22 20 C-22.01981934 20.86802246 -22.03963867 21.73604492 -22.06005859 22.63037109 C-22.13809872 25.84726267 -22.22478881 29.06377045 -22.31738281 32.28027344 C-22.35569327 33.67308572 -22.39054259 35.06599765 -22.421875 36.45898438 C-22.46747907 38.45986308 -22.52651623 40.46042146 -22.5859375 42.4609375 C-22.6173584 43.66540527 -22.6487793 44.86987305 -22.68115234 46.11083984 C-23 49 -23 49 -25 51 C-27.5 51.3125 -27.5 51.3125 -30 51 C-32.02671521 47.95992719 -32.25114027 47.3704213 -32.25878906 43.95922852 C-32.26509338 43.15151505 -32.27139771 42.34380157 -32.27789307 41.51161194 C-32.2738446 40.64281906 -32.26979614 39.77402618 -32.265625 38.87890625 C-32.26753845 37.98259995 -32.2694519 37.08629364 -32.27142334 36.16282654 C-32.27278423 34.26732096 -32.26909448 32.37180603 -32.26074219 30.47631836 C-32.25005382 27.57709757 -32.26063423 24.6784982 -32.2734375 21.77929688 C-32.27211564 19.93749863 -32.26955271 18.09570078 -32.265625 16.25390625 C-32.26967346 15.3871376 -32.27372192 14.52036896 -32.27789307 13.62733459 C-32.27158875 12.81646896 -32.26528442 12.00560333 -32.25878906 11.17016602 C-32.25719788 10.45973648 -32.25560669 9.74930695 -32.25396729 9.01734924 C-31.95410592 6.63544756 -31.25481989 5.03910823 -30 3 C-27.074084 1.537042 -25.24382653 1.55476891 -22 2 C-16.70193335 7.18132959 -13.8855192 13.77689963 -10.6875 20.375 C-10.13771484 21.49261719 -9.58792969 22.61023438 -9.02148438 23.76171875 C-7.67362871 26.50431202 -6.33341667 29.25036553 -5 32 C-3.91803781 28.75411343 -3.84345347 26.28599847 -3.7890625 22.87109375 C-3.74652344 21.07188477 -3.74652344 21.07188477 -3.703125 19.23632812 C-3.65096442 16.70001977 -3.60671657 14.16353656 -3.5703125 11.62695312 C-3.539375 10.42876953 -3.5084375 9.23058594 -3.4765625 7.99609375 C-3.45674316 6.89450928 -3.43692383 5.7929248 -3.41650391 4.65795898 C-3.27905762 3.78083252 -3.14161133 2.90370605 -3 2 C-2.01 1.34 -1.02 0.68 0 0 Z " fill="#000000" transform="translate(392,404)"/>
<path d="M0 0 C2.375 0.625 2.375 0.625 5 2 C7.7128077 7.60213371 7.36749004 13.60067477 7.375 19.6875 C7.39949219 20.71294922 7.42398438 21.73839844 7.44921875 22.79492188 C7.4797327 30.84551804 6.40760691 38.88407775 1.1184082 45.27270508 C-1.92927896 48.29410878 -4.80385171 50.33115488 -9.0625 51.125 C-15.0741068 50.93415534 -19.07335715 49.29911009 -23.1875 44.9375 C-30.99520389 34.94363902 -32.49331781 21.41535575 -32.26953125 9.06640625 C-31.89571096 6.20045066 -30.78979358 4.23724198 -29 2 C-24.125 2.875 -24.125 2.875 -23 4 C-22.74979234 5.6591039 -22.55601823 7.3267923 -22.38671875 8.99609375 C-22.27263672 10.03056641 -22.15855469 11.06503906 -22.04101562 12.13085938 C-21.80918555 14.29930308 -21.58495857 16.46857605 -21.36914062 18.63867188 C-20.50641226 26.29008243 -19.46893956 34.79790194 -13.5625 40.25 C-11.0163797 41.18707341 -11.0163797 41.18707341 -8.375 40.625 C-4.30417276 37.83969715 -3.42096049 33.76038024 -2.3125 29.125 C-1.53456129 21.34561291 -2.23756273 13.79714562 -3.07421875 6.0390625 C-3 3 -3 3 -1.51953125 1.0859375 C-1.01808594 0.72757812 -0.51664062 0.36921875 0 0 Z " fill="#000000" transform="translate(489,404)"/>
</svg>
